# xmcd
#
# Track frame offsets:
#	150
#	16573
#	36819
#	53520
#	70225
#	86458
#	107194
#	136421
#	154071
#	175945
#	194746
#	213570
#	232457
#
# Disc length: 3231 seconds
#
# Revision: 1
# Processed by: cddbd v1.5.1PL2 Copyright (c) Steve Scherf et al.
# Submitted via: audiograbber 1.83.01
#
DISCID=b40c9d0d
DTITLE=rudy currence - more than you'll ever know
DYEAR=1900
DGENRE=soul/r&b
TTITLE0=cha cha
TTITLE1=songwriter
TTITLE2=finally
TTITLE3=stay clear
TTITLE4=digital love
TTITLE5=sweetest sacrifice
TTITLE6=don't say goodbye
TTITLE7=more than you'll ever know
TTITLE8=have i told you (that i love you lately)
TTITLE9=superstar
TTITLE10=carousels
TTITLE11=love song
TTITLE12=mary rose
EXTD=
EXTT0=
EXTT1=
EXTT2=
EXTT3=
EXTT4=
EXTT5=
EXTT6=
EXTT7=
EXTT8=
EXTT9=
EXTT10=
EXTT11=
EXTT12=
PLAYORDER=
